<svg width="132" height="66" viewBox="0 0 132 66" fill="none" xmlns="http://www.w3.org/2000/svg">
<rect x="1.13725" y="21.6373" width="102.706" height="43.7255" rx="21.8627" fill="white" fill-opacity="0.1"/>
<rect x="1.13725" y="21.6373" width="102.706" height="43.7255" rx="21.8627" stroke="#171717" stroke-width="1.27451"/>
<path d="M36.6347 35.7012H38.9882V49.5H36.6347V43.6797H29.8671V49.5H27.4941V35.7012H29.8671V41.4434H36.6347V35.7012ZM51.6179 44.4219C51.6179 44.7214 51.5984 45.0143 51.5593 45.3008H43.2976C43.4799 46.0365 43.864 46.6257 44.4499 47.0684C45.0424 47.5046 45.752 47.7227 46.5788 47.7227C47.2169 47.7227 47.8093 47.5892 48.3562 47.3223C48.9096 47.0553 49.3393 46.7201 49.6453 46.3164L51.1589 47.6152C50.6316 48.2793 49.961 48.8001 49.1472 49.1777C48.3399 49.5553 47.4643 49.7441 46.5203 49.7441C44.9057 49.7441 43.5613 49.2298 42.487 48.2012C41.4193 47.1725 40.8855 45.8932 40.8855 44.3633C40.8855 43.3737 41.1199 42.4753 41.5886 41.668C42.0574 40.8542 42.7019 40.2161 43.5222 39.7539C44.349 39.2917 45.2637 39.0605 46.2663 39.0605C47.7963 39.0605 49.0691 39.5716 50.0847 40.5938C51.1068 41.6094 51.6179 42.8854 51.6179 44.4219ZM46.2468 41.082C45.5242 41.082 44.8926 41.3001 44.3523 41.7363C43.8184 42.1725 43.4604 42.7487 43.2781 43.4648H49.2253C49.0561 42.7487 48.698 42.1725 48.1511 41.7363C47.6107 41.3001 46.976 41.082 46.2468 41.082ZM53.271 49.5V35.0957H55.5171V49.5H53.271ZM57.8734 49.5V35.0957H60.1195V49.5H57.8734ZM67.3195 49.7441C65.7635 49.7441 64.4647 49.2331 63.423 48.2109C62.3813 47.1888 61.8605 45.9193 61.8605 44.4023C61.8605 42.8854 62.3813 41.6159 63.423 40.5938C64.4647 39.5716 65.7635 39.0605 67.3195 39.0605C68.3351 39.0605 69.2596 39.2949 70.0929 39.7637C70.9328 40.2259 71.5903 40.8672 72.0656 41.6875C72.5408 42.5013 72.7785 43.4062 72.7785 44.4023C72.7785 45.3984 72.5408 46.3066 72.0656 47.127C71.5903 47.9408 70.9328 48.582 70.0929 49.0508C69.2596 49.513 68.3351 49.7441 67.3195 49.7441ZM65.0636 46.668C65.6691 47.2734 66.421 47.5762 67.3195 47.5762C68.2179 47.5762 68.9633 47.2734 69.5558 46.668C70.1548 46.056 70.4542 45.3008 70.4542 44.4023C70.4542 43.4974 70.1548 42.7422 69.5558 42.1367C68.9633 41.5247 68.2179 41.2188 67.3195 41.2188C66.421 41.2188 65.6691 41.5247 65.0636 42.1367C64.4581 42.7487 64.1554 43.5039 64.1554 44.4023C64.1554 45.3008 64.4581 46.056 65.0636 46.668ZM74.7831 45.3203L74.6464 39.0996V35.7012H77.0195V39.0996L76.8828 45.3203H74.7831ZM75.8183 49.6562C75.3756 49.6562 75.0078 49.5098 74.7148 49.2168C74.4283 48.9238 74.2851 48.5592 74.2851 48.123C74.2851 47.6803 74.4316 47.3125 74.7245 47.0195C75.0175 46.7266 75.3821 46.5801 75.8183 46.5801C76.2675 46.5801 76.6386 46.7266 76.9316 47.0195C77.2311 47.3125 77.3808 47.6803 77.3808 48.123C77.3808 48.5658 77.2311 48.9336 76.9316 49.2266C76.6386 49.513 76.2675 49.6562 75.8183 49.6562Z" fill="#171717"/>
<path d="M102.49 20C102.49 17 105.49 11 102.49 2M109.99 23.5C114.324 19.3333 123.19 9.2 123.99 2M112.99 30.5C115.657 30.5 122.79 29.1 129.99 23.5" stroke="#D92D20" stroke-width="4" stroke-linecap="round" stroke-linejoin="round"/>
</svg>
